<svg xmlns="http://www.w3.org/2000/svg" width="50" height="50"><g fill="#452AD6"><path d="M42 21h3v17.5a5.5 5.5 0 0 1-5.5 5.5h-29A5.5 5.5 0 0 1 5 38.5v-17h3v17a2.5 2.5 0 0 0 2.5 2.5h29a2.5 2.5 0 0 0 2.5-2.5V21Z"/><path d="M20.5 43.01h-3V30.87A4.44 4.44 0 0 1 22 26.5h6c2.49 0 4.5 1.96 4.5 4.37V43.5h-3V30.87c0-.8-.67-1.46-1.5-1.46h-6c-.83 0-1.5.66-1.5 1.46v12.14ZM42 12a4.25 4.25 0 0 0-4-3H12a4.25 4.25 0 0 0-4 3l-3 8h1c.67.14 1.82-.01 3-1h1a6.34 6.34 0 0 1 7 0c1.64.7 3.36.7 5 0 2.1-1.4 4.9-1.4 7 0 1.64.7 3.37.7 5 0a6.2 6.2 0 0 1 7 0c1.29.93 2.38 1.13 3 1h1l-3-8Zm6 7c.33 1.42-.31 2.9-2 3 .3.45.2.48 0 1h-1c-1.86.24-3.78-.1-5-1l-1-1c-.99-.25-2.35-.3-3 0l-1 1c-2.16.82-4.93.82-7 0-1.65-1.25-3.36-1.25-5 0-2.07.82-4.85.82-7 0-1.57-1.25-3.28-1.25-5 0h-1c-1.28.98-3.17 1.23-5 1H4a3.8 3.8 0 0 1-2-4c.1.32.13.2 0 0l3-8c1.36-3.05 4.12-5 7-5h26c2.88 0 5.64 1.95 7 5l3 8Z"/></g></svg>