<svg xmlns="http://www.w3.org/2000/svg" width="44" height="45"><g fill="#452AD6" fill-rule="evenodd" transform="translate(-4 -4)"><path fill-rule="nonzero" d="M42 35.4h3v9.1c0 2.5-2 4.5-4.5 4.5h-32C6 49 4 47 4 44.5v-26C4 16 6 14 8.5 14h32c2.5 0 4.5 2 4.5 4.5v6h-3v-6c0-.8-.7-1.5-1.5-1.5h-32c-.8 0-1.5.7-1.5 1.5v26c0 .8.7 1.5 1.5 1.5h32c.8 0 1.5-.7 1.5-1.5v-9.1Z"/><path fill-rule="nonzero" d="M31.5 27c-.8 0-1.5.7-1.5 1.5v5c0 .8.7 1.5 1.5 1.5h13c.3 0 .5-.2.5-.5v-7c0-.3-.2-.5-.5-.5h-13Zm0-3h13c2 0 3.5 1.6 3.5 3.5v7c0 2-1.6 3.5-3.5 3.5h-13C29 38 27 36 27 33.5v-5c0-2.5 2-4.5 4.5-4.5Z"/><circle cx="35" cy="31" r="2"/><path fill-rule="nonzero" d="M14 16.7 12.8 14 29 5.2a3.5 3.5 0 0 1 4.9 1.6l3.5 7.6-2.7 1.2L31 8.1a.5.5 0 0 0-.7-.3l-16.2 8.9Z"/></g></svg>