<svg xmlns="http://www.w3.org/2000/svg" width="50" height="50"><g fill="#452AD6"><path d="M40 20v-1c0-8.09-6.94-15-15-15-9.06 0-16 6.91-16 15v2c.34 3.56 1.76 6.5 5 10 .36.92 6.47 7.68 8 10 1.15 1.12 1.84 2.05 3 3 .15-.94.83-1.86 2-3 1.52-2.3 7.64-9.08 8-10 3.24-3.5 4.66-6.44 5-10v-1Zm3 0c-.3 4.9-3 9.01-6 13s-6.22 7.25-8 10a13.03 13.03 0 0 0-3 4l-2 2-1-2a12.95 12.95 0 0 0-3-4c-1.8-2.77-4.97-5.5-8-10-3.03-4.5-5.7-8.1-6-13v-1C6.36 8.86 14.5 1 25 1c9.5 0 17.64 7.86 18 18v1Z"/><path d="M22.81 23.5v7H17a2.5 2.5 0 0 1-2.5-2.5V18h3v9.5h2.31v-7h9.38v7h2.31V18h3v10a2.5 2.5 0 0 1-2.5 2.5h-5.81v-7H22.8Z"/><path d="M15.47 18.32a1.5 1.5 0 0 1-2.94-.64l1.06-4.82a3 3 0 0 1 2.93-2.36h15.96a3 3 0 0 1 2.93 2.36l1.06 4.82a1.5 1.5 0 1 1-2.94.64l-1.05-4.82H16.52l-1.05 4.82Z"/><path d="m14 18 1.05-2c.69-.06.91-.07 1.05 0 1.46-1.2 3.31-1.2 4.2 0 .87.04 1.3.07 2.1 0 1.66-1.24 3.51-1.19 5.25 0 .26.03.65.02 1.05 0 1.3-1.19 3.1-1.26 4.2 0 .83-.08 1.18-.02 1.05 0L35 19a3.96 3.96 0 0 1-3.15-1 3.19 3.19 0 0 0-1.05 0 4.29 4.29 0 0 1-5.25 0c-.35-.07-.97-.08-1.05 0h-1.05c-1.4 1.27-3.17 1.15-4.2 0H18.2c-1.35 1.04-2.91 1.14-4.2 0Z"/></g></svg>